<svg xmlns="http://www.w3.org/2000/svg" viewBox="0 0 273 84" enable-background="new 0 0 273 84"><style type="text/css"><![CDATA[
	.st0{fill:#485EA1;}
	.st1{fill:#1579B3;}
	.st2{fill:#263D85;}
	.st3{fill:#304A9F;}
	.st4{fill:#328FCE;}
	.st5{fill:#3E67B1;}
	.st6{fill:#0B7CB6;}
	.st7{fill:#42A6D2;}
]]></style><path class="st3" d="M1.9 38.4l19.3 17.2L36.1 60l13.6 4 .1.4v-.2l.1-.1 15.5 3 7.3-3.3 19.6 19.6.7-21.3v-.6l5.3-2.4-.6-10.9.1-.1-.2-1.1-2-15-.1-.1-1.8-13.6-11-7.5-11-7.5L48.4.7 33.6 1.9 8.8 18.6 1.9 38.4"/><path class="st2" d="M123.8 19.6v40.2h-2v-21H109v21h-2V19.6h2v17.2h12.9V19.6h1.9zM130.9 59.7V19.2h2v40.5h-2zM160 19.6l-8.7 40.1h-2.6L140 19.6h2l8 36.9 8-36.9h2zM165.9 19.5h15.6v2H166m1.9 38.2h-2V19.5h2m-1 38.2h14.6v2H166m1.9-38.2v15.2h11.2v2h-11.2v19.1"/><path class="st1" d="M211.3 19.6v40.1h-2V25.1l-9.9 27.2-10-27.2v34.5h-2v-40h2l9.9 27.1 9.9-27.1h2.1zM218.4 59.7V19.3h2v40.3h-2v.1zM244.9 19.6v40.1h-2L230.3 25v34.7h-2V19.6h2l12.6 34.7V19.6h2zM260.2 19.6c1.2 0 2.3.2 3.3.7 1 .4 2 1 2.7 1.8.8.8 1.4 1.7 1.8 2.7.5 1 .7 2.1.7 3.3v23.1c0 1.2-.2 2.3-.7 3.3-.5 1-1.1 1.9-1.8 2.7-.8.8-1.7 1.4-2.7 1.8-1 .4-2.2.7-3.3.7H252V19.6h8.2zm6.6 8.4c0-.9-.2-1.8-.5-2.6-.4-.8-.8-1.5-1.4-2.1-.6-.6-1.3-1.1-2.1-1.4-.8-.3-1.6-.5-2.6-.5H254v36.2h6.2c.9 0 1.8-.2 2.6-.5s1.5-.8 2.1-1.4c.6-.6 1.1-1.3 1.4-2.1.4-.8.5-1.6.5-2.6V28z"/><path class="st3" d="M21.2 55.6l11.6-6 3.3 10.3z"/><path class="st2" d="M18.9 44.6L42 40l-9.2 9.6z"/><path class="st5" d="M1.9 38.4l19.3-4.1 7.8 8.3-10.1 2z"/><path class="st3" d="M29 42.6l-7.8-8.3L42 40z"/><path class="st7" d="M21.2 34.3L8.8 18.6 42 40z"/><path class="st6" d="M8.8 18.6L1.9 38.4l19.3-4.1z"/><path class="st3" d="M8.8 18.6L42 29.3V40z"/><path class="st5" d="M24.9 15.2l7.9 11.1-24-7.7z"/><path class="st1" d="M33.6 1.9l-.8 24.4-7.9-11.1z"/><path class="st3" d="M33.6 1.9l-8.7 13.3-16.1 3.4z"/><path class="st0" d="M32.8 26.3l9.2-9v12z"/><path class="st5" d="M32.8 26.3l9.2-9-8.4-15.4z"/><path class="st7" d="M42 17.3L48.4.7 33.6 1.9z"/><path class="st3" d="M71.8 3.3L45.2 9 48.4.7z"/><path class="st4" d="M45.2 9l37.6 1.8-11-7.5z"/><path class="st1" d="M32.8 49.6l17 14.3-13.7-4z"/><path class="st7" d="M42 40l7.8 23.9-17-14.3z"/><path class="st2" d="M57 9.6l36.7 8.7-10.9-7.5z"/><path class="st5" d="M95.7 32.7l-2-14.4L57 9.6z"/><path class="st3" d="M80 23.3l17.8 24.9L95.7 32z"/><path class="st5" d="M87.2 54.7L80 23.3l17.8 24.9z"/><path class="st2" d="M77.5 61.5L83.6 39l3.6 15.7z"/><path class="st4" d="M92.3 83.2l-6.1-18.6-15.6-3.1z"/><path class="st5" d="M93 61.5l-6.8 3.1 6.1 18.6z"/><path class="st2" d="M49.8 63.9l27.7-2.4L65.4 67z"/><path class="st0" d="M77.5 61.5L61.4 52 49.8 63.9"/><path class="st7" d="M83.6 39L61.4 52l16.1 9.9z"/><path class="st5" d="M57 37.1L61.4 52l22.2-13z"/><path class="st3" d="M42 40l19.4 12L57 37.1z"/><path class="st1" d="M49.8 64.1v.1L42 40l19.4 12"/><path class="st0" d="M19.6 44.8l1.6 10.8 11.6-6z"/><path class="st7" d="M1.9 38.4l19.3 17.2-1.6-10.8z"/><path class="st0" d="M70.3 27.3L57 37.1 83.6 39z"/><path class="st2" d="M80 23.3l-9.7 4L83.6 39z"/><path class="st1" d="M57 9.6l23 13.7-9.7 4z"/><path class="st3" d="M57 9.6v27.5l13.3-9.8z"/><path class="st7" d="M42 40l6.4-16.7L57 37.1z"/><path class="st1" d="M57 9.6v27.5l-8.6-13.8z"/><path class="st5" d="M45.2 9l3.2 14.3L57 9.6z"/><path class="st2" d="M42 17.3l6.4 6L45.2 9z"/><path class="st3" d="M42 17.3l6.4 6L42 40z"/><path class="st2" d="M86.2 64.6L97.6 47l.7 12.2z"/><path class="st3" d="M74.2 62.2l23.1-14.7-10.1 18.4z"/></svg>